<svg width="512" height="512" viewBox="0 0 512 512" fill="none" xmlns="http://www.w3.org/2000/svg">
<path d="M390.831 264.113C393.284 266.694 394.66 269.977 394.9 273.342C395.788 285.818 381.726 299.343 366.776 300.407C358.522 300.995 351.349 294.774 350.761 286.519C349.697 271.566 361.09 255.727 373.579 254.837C376.943 254.598 380.388 255.495 383.289 257.559L466.378 157.123C468.186 155.037 471.903 153.147 473.988 154.956C476.074 156.764 475.378 160.772 473.57 162.857L390.831 264.113Z" fill="#065E7C" class="svg-elem-1"></path>
<path d="M121.981 264.113C119.528 266.694 118.151 269.977 117.912 273.342C117.023 285.818 131.086 299.343 146.036 300.407C154.289 300.995 161.463 294.774 162.05 286.519C163.115 271.566 151.721 255.727 139.232 254.837C135.868 254.598 132.424 255.495 129.522 257.559L46.4338 157.123C44.6258 155.037 40.9085 153.147 38.8233 154.956C36.7381 156.764 37.434 160.772 39.2419 162.857L121.981 264.113Z" fill="#065E7C" class="svg-elem-2"></path>
<path d="M146.171 253.666C144.672 253.677 143.24 253.099 142.175 252.068L137.416 247.464C135.232 245.35 135.365 241.852 136.084 238.921C136.29 238.123 136.389 237.292 136.383 236.426C136.341 230.696 131.564 226.074 125.729 226.117C119.894 226.16 115.185 230.851 115.227 236.581C115.235 237.672 114.238 238.666 113.127 238.674C107.292 238.717 102.583 243.408 102.625 249.138C102.667 254.868 107.444 259.49 113.279 259.447C114.161 259.441 115.006 259.331 115.833 259.117C118.807 258.368 122.367 258.169 124.551 260.299L129.31 264.904C130.375 265.935 130.985 267.333 130.996 268.804L131.109 284.246C131.117 285.336 131.178 286.392 131.309 287.447C131.535 289.506 134.062 290.266 135.906 289.283C138.681 287.791 141.848 286.937 145.233 286.912C156.146 286.832 165.042 295.441 165.12 306.156C165.13 307.541 164.999 308.875 164.726 310.175C164.301 312.204 165.797 314.34 167.857 313.961C182.33 311.31 193.257 298.766 193.148 283.791C193.024 266.965 179.032 253.426 161.896 253.551L146.171 253.666Z" fill="#04D361" class="svg-elem-3"></path>
<path d="M129.953 269.729C129.972 268.223 129.387 266.779 128.337 265.702L123.647 260.892C121.494 258.685 117.911 258.799 114.906 259.506C114.088 259.708 113.236 259.804 112.35 259.793C106.483 259.719 101.775 254.89 101.849 249.023C101.923 243.156 106.751 238.448 112.618 238.522C113.735 238.537 114.758 237.539 114.772 236.422C114.846 230.555 119.674 225.847 125.541 225.921C131.408 225.995 136.116 230.823 136.042 236.69C136.031 237.577 135.914 238.426 135.691 239.256C134.908 242.243 134.686 245.821 136.856 248.029L141.547 252.839C142.597 253.916 144.025 254.537 145.532 254.556L161.343 254.755C162.459 254.769 163.54 254.836 164.619 254.973C166.726 255.213 167.492 257.758 166.476 259.606C164.934 262.388 164.043 265.568 164 268.971C163.862 279.943 172.63 288.935 183.602 289.073C185.02 289.091 186.386 288.966 187.719 288.7C189.799 288.283 191.978 289.799 191.58 291.868C188.79 306.405 175.889 317.323 160.556 317.13C143.328 316.912 129.536 302.769 129.753 285.54L129.953 269.729Z" fill="#04D361" class="svg-elem-4"></path>
<path d="M210.448 291.742C199.394 295.707 186.678 288.471 182.782 277.609C178.666 266.133 179.46 247.344 192.809 242.557C206.157 237.769 218.711 251.771 222.827 263.248C226.722 274.11 221.503 287.778 210.448 291.742ZM193.266 256.039C193.723 255.181 193.404 254.128 192.54 253.686C191.675 253.245 190.603 253.571 190.146 254.429C188.455 257.557 187.797 261.366 187.786 265.013C187.776 268.66 188.416 272.316 189.456 275.216C189.78 276.117 190.795 276.586 191.713 276.257C192.63 275.928 193.117 274.921 192.793 274.019C191.893 271.508 191.316 268.258 191.325 264.97C191.331 261.672 191.944 258.491 193.266 256.039Z" fill="#82F3FF" class="svg-elem-5"></path>
<path d="M304 259.407C291.195 273.213 270.878 276.342 257.008 266.757L230.221 298.087C232.555 299.788 234.98 301.304 237.484 302.645C222.368 295.371 212 280.345 212 262.973C212 238.492 232.623 218.645 258.074 218.645C282.266 218.645 302.119 236.594 304 259.407Z" fill="#0DAB77" class="svg-elem-6"></path>
<path d="M304.444 263.442C304.444 287.943 283.821 307.797 258.396 307.797C251.001 307.797 244.013 306.117 237.819 303.128C235.316 301.786 232.892 300.27 230.559 298.568L257.332 267.227C271.193 276.816 291.499 273.685 304.296 259.875C304.398 261.053 304.444 262.242 304.444 263.442Z" fill="#44B281" class="svg-elem-7"></path>
<path d="M351.193 243.675L297.626 289.667C297.649 289.689 297.66 289.71 297.683 289.721C301.51 293.856 305.905 297.237 310.638 299.845C287.547 313.295 259.755 314.921 237.819 303.128C244.013 306.117 251.001 307.797 258.396 307.797C283.821 307.797 304.444 287.943 304.444 263.442C304.444 262.242 304.398 261.053 304.296 259.875C304.693 259.46 305.066 259.035 305.44 258.599C318.158 243.708 317.773 223.058 304.953 211.462L330.774 181.234C348.702 196.68 355.621 220.331 351.193 243.675Z" fill="#3BB289" class="svg-elem-8"></path>
<path d="M370.491 293.747C353.526 308.321 329.347 310.121 310.638 299.845C318.792 295.099 326.346 288.881 332.858 281.256C342.609 269.846 348.702 256.81 351.193 243.675L374.613 223.56C374.625 223.581 374.647 223.592 374.659 223.614C393.617 244.09 391.748 275.496 370.491 293.747Z" fill="#82F3FF" class="svg-elem-9"></path>
<path d="M351.193 243.675C348.702 256.81 342.609 269.846 332.858 281.256C326.346 288.881 318.792 295.099 310.638 299.845C305.905 297.237 301.51 293.856 297.683 289.721C297.66 289.71 297.649 289.689 297.626 289.667L351.193 243.675Z" fill="#1C6150" class="svg-elem-10"></path>
<path d="M177.049 210.819C177.05 215.37 180.717 219.045 185.256 219.044C189.794 219.043 193.46 215.366 193.459 210.816L193.458 207.988C193.455 193.796 187.837 180.197 177.835 170.173L172.449 164.775C170.141 162.462 168.832 159.325 168.832 156.06L168.831 153.232C168.83 148.682 165.163 145.006 160.624 145.007C156.086 145.008 152.42 148.685 152.421 153.236L152.422 156.064C152.423 163.7 155.45 171.026 160.836 176.424L166.222 181.822C173.146 188.761 177.046 198.17 177.048 207.991L177.049 210.819ZM144.216 153.238C144.215 148.687 140.547 145.012 136.009 145.013C131.471 145.014 127.805 148.691 127.806 153.241L127.806 156.069C127.809 170.261 133.428 183.86 143.43 193.884L148.816 199.282C151.124 201.595 152.432 204.731 152.433 207.997L152.434 210.825C152.435 215.375 156.102 219.051 160.64 219.05C165.179 219.049 168.845 215.371 168.844 210.821L168.843 207.993C168.841 200.357 165.814 193.031 160.428 187.633L155.043 182.235C148.118 175.295 144.219 165.887 144.216 156.066L144.216 153.238Z" fill="#82F3FF" class="svg-elem-11"></path>
<path d="M177.049 210.819C177.05 215.37 180.717 219.045 185.256 219.044C189.794 219.043 193.46 215.366 193.459 210.816L193.458 207.988C193.455 193.796 187.837 180.197 177.835 170.173L172.449 164.775C170.141 162.462 168.832 159.325 168.832 156.06L168.831 153.232C168.83 148.682 165.163 145.006 160.624 145.007C156.086 145.008 152.42 148.685 152.421 153.236L152.422 156.064C152.423 163.7 155.45 171.026 160.836 176.424L166.222 181.822C173.146 188.761 177.046 198.17 177.048 207.991L177.049 210.819ZM144.216 153.238C144.215 148.687 140.547 145.012 136.009 145.013C131.471 145.014 127.805 148.691 127.806 153.241L127.806 156.069C127.809 170.261 133.428 183.86 143.43 193.884L148.816 199.282C151.124 201.595 152.432 204.731 152.433 207.997L152.434 210.825C152.435 215.375 156.102 219.051 160.64 219.05C165.179 219.049 168.845 215.371 168.844 210.821L168.843 207.993C168.841 200.357 165.814 193.031 160.428 187.633L155.043 182.235C148.118 175.295 144.219 165.887 144.216 156.066L144.216 153.238Z" fill="#82F3FF" class="svg-elem-12"></path>
<path d="M122.109 298.135C121.109 290.417 127.108 283.645 134.896 283.645H375.062C382.85 283.645 388.849 290.417 387.901 298.135C384.586 324.49 364.537 345.07 339.174 349.795V350.845C339.174 360.137 331.649 367.645 322.335 367.645H187.623C178.309 367.645 170.784 360.137 170.784 350.845V349.795C145.421 345.07 125.372 324.49 122.109 298.135Z" fill="#065E7C" class="svg-elem-13"></path>
</svg>
